<svg width="36" height="36" viewBox="0 0 36 36" fill="none" xmlns="http://www.w3.org/2000/svg">
<path d="M17.9691 18.7019C17.4393 18.7019 16.9215 18.859 16.4811 19.1533C16.0407 19.4476 15.6974 19.8659 15.4947 20.3553C15.292 20.8447 15.239 21.3832 15.3423 21.9028C15.4457 22.4223 15.7008 22.8995 16.0754 23.2741C16.4499 23.6487 16.9272 23.9037 17.4467 24.0071C17.9663 24.1104 18.5048 24.0573 18.9942 23.8546C19.4836 23.6519 19.9018 23.3086 20.1961 22.8681C20.4904 22.4277 20.6475 21.9098 20.6475 21.3801C20.6466 20.67 20.3642 19.9893 19.8621 19.4872C19.3599 18.9851 18.6792 18.7027 17.9691 18.7019Z" fill="#282B3E"/>
<path d="M34.1821 29.015V11.0326L25.482 11.0328V5.91522H10.4999V11.0328L1.79993 11.0326L1.7998 32.015H34.1998V29.015H34.1821ZM17.9999 27.0585C16.8769 27.0585 15.779 26.7255 14.8452 26.1016C13.9114 25.4776 13.1836 24.5908 12.7538 23.5532C12.324 22.5157 12.2116 21.3739 12.4306 20.2724C12.6497 19.1709 13.1905 18.1592 13.9847 17.365C14.7788 16.5709 15.7906 16.0301 16.892 15.811C17.9935 15.5918 19.1352 15.7043 20.1728 16.1341C21.2104 16.5638 22.0973 17.2916 22.7212 18.2254C23.3452 19.1592 23.6782 20.2571 23.6782 21.3801C23.6765 22.8856 23.0777 24.3289 22.0132 25.3934C20.9487 26.458 19.5054 27.0568 17.9999 27.0585Z" fill="#282B3E"/>
</svg>
