<svg width="96" height="96" viewBox="0 0 96 96" fill="none" xmlns="http://www.w3.org/2000/svg">
<rect width="96" height="96" rx="48" fill="white"/>
<path d="M47.9691 48.7019C47.4393 48.702 46.9215 48.8591 46.4811 49.1534C46.0407 49.4477 45.6974 49.866 45.4947 50.3554C45.292 50.8448 45.239 51.3833 45.3423 51.9028C45.4457 52.4224 45.7008 52.8996 46.0754 53.2742C46.4499 53.6487 46.9272 53.9038 47.4467 54.0071C47.9663 54.1104 48.5048 54.0574 48.9942 53.8547C49.4836 53.6519 49.9018 53.3086 50.1961 52.8682C50.4904 52.4277 50.6475 51.9099 50.6475 51.3802C50.6466 50.6701 50.3642 49.9893 49.8621 49.4872C49.3599 48.9851 48.6792 48.7027 47.9691 48.7019Z" fill="#282B3E"/>
<path d="M64.1821 59.015V41.0327L55.482 41.0328V35.9153H40.4999V41.0328L31.7999 41.0327L31.7998 62.0151H64.1998V59.015H64.1821ZM47.9999 57.0586C46.8769 57.0586 45.779 56.7256 44.8452 56.1016C43.9114 55.4777 43.1836 54.5909 42.7538 53.5533C42.324 52.5157 42.2116 51.374 42.4306 50.2725C42.6497 49.171 43.1905 48.1592 43.9847 47.3651C44.7788 46.5709 45.7906 46.0301 46.892 45.811C47.9935 45.5919 49.1352 45.7043 50.1728 46.1341C51.2104 46.5639 52.0973 47.2917 52.7212 48.2255C53.3452 49.1593 53.6782 50.2571 53.6782 51.3802C53.6765 52.8856 53.0777 54.329 52.0132 55.3935C50.9487 56.458 49.5054 57.0568 47.9999 57.0586Z" fill="#282B3E"/>
</svg>
