<svg width="20" height="20" viewBox="0 0 20 20" fill="none" xmlns="http://www.w3.org/2000/svg">
<mask id="mask0_453_6759" style="mask-type:alpha" maskUnits="userSpaceOnUse" x="0" y="2" width="19" height="15">
<path d="M18.9729 15.1191V5.12913H14.1399V2.28613H5.81591V5.12913H0.98291V15.1191V16.7861H18.9829V15.1191H18.9729ZM17.3059 15.1191H2.64991V6.80013H7.48291V5.12913V3.95313H12.4729V5.31213V6.80013H17.3059V15.1191Z" fill="#282B3E"/>
<path d="M9.98313 7.72314C9.35913 7.72314 8.74914 7.90818 8.2303 8.25486C7.71147 8.60153 7.30708 9.09428 7.06829 9.67078C6.82949 10.2473 6.76701 10.8816 6.88875 11.4937C7.01049 12.1057 7.31097 12.6678 7.7522 13.1091C8.19344 13.5503 8.75561 13.8508 9.36762 13.9725C9.97963 14.0943 10.614 14.0318 11.1905 13.793C11.767 13.5542 12.2597 13.1498 12.6064 12.631C12.9531 12.1121 13.1381 11.5021 13.1381 10.8781C13.1373 10.0416 12.8047 9.23961 12.2132 8.6481C11.6217 8.05659 10.8196 7.72394 9.98313 7.72314ZM9.98313 12.3661C9.68883 12.3661 9.40114 12.2789 9.15644 12.1154C8.91174 11.9519 8.72102 11.7195 8.60839 11.4476C8.49577 11.1757 8.4663 10.8765 8.52372 10.5879C8.58113 10.2992 8.72285 10.0341 8.93095 9.82597C9.13905 9.61787 9.40419 9.47615 9.69283 9.41874C9.98148 9.36132 10.2807 9.39079 10.5526 9.50341C10.8245 9.61604 11.0568 9.80676 11.2204 10.0515C11.3839 10.2962 11.4711 10.5838 11.4711 10.8781C11.4706 11.2726 11.3137 11.6508 11.0347 11.9297C10.7558 12.2087 10.3776 12.3656 9.98313 12.3661Z" fill="#282B3E"/>
</mask>
<g mask="url(#mask0_453_6759)">
<rect width="20" height="20" fill="#282B3E"/>
</g>
</svg>
