<svg width="20" height="20" viewBox="0 0 20 20" fill="none" xmlns="http://www.w3.org/2000/svg">
<mask id="mask0_453_6181" style="mask-type:alpha" maskUnits="userSpaceOnUse" x="1" y="1" width="18" height="18">
<path d="M10 1C12.3861 1.00265 14.6741 1.95142 16.3613 3.63867C18.0486 5.32593 18.9974 7.61386 19 10C19 11.78 18.4723 13.52 17.4834 15C16.4945 16.4799 15.0887 17.6332 13.4443 18.3145C11.7998 18.9956 9.98997 19.1744 8.24414 18.8271C6.49832 18.4799 4.89441 17.6229 3.63574 16.3643C2.37708 15.1056 1.52012 13.5017 1.17285 11.7559C0.825585 10.01 1.00436 8.2002 1.68555 6.55566C2.36675 4.91127 3.52005 3.50547 5 2.5166C6.48 1.52774 8.22004 1 10 1ZM12.8047 3.22852C11.4656 2.67387 9.9919 2.52879 8.57031 2.81152C7.14863 3.09431 5.84236 3.7924 4.81738 4.81738C3.7924 5.84236 3.09431 7.14863 2.81152 8.57031C2.52879 9.9919 2.67387 11.4656 3.22852 12.8047C3.78323 14.1439 4.72346 15.2884 5.92871 16.0938C7.13389 16.8989 8.55058 17.3291 10 17.3291C11.943 17.3267 13.8057 16.5536 15.1797 15.1797C16.5536 13.8057 17.3267 11.943 17.3291 10C17.3291 8.55058 16.8989 7.1339 16.0938 5.92871C15.2884 4.72346 14.1439 3.78323 12.8047 3.22852ZM12.8047 9.99902L9.00781 13.6416L7.85059 12.4355L10.4258 9.9668L7.90137 7.4082L9.09082 6.23438L12.8047 9.99902Z" fill="#282B3E"/>
</mask>
<g mask="url(#mask0_453_6181)">
<rect width="20" height="20" fill="#EC6453"/>
</g>
</svg>
