<svg width="25" height="24" viewBox="0 0 25 24" fill="none" xmlns="http://www.w3.org/2000/svg">
<mask id="mask0_453_4061" style="mask-type:alpha" maskUnits="userSpaceOnUse" x="1" y="1" width="23" height="22">
<path d="M12.5364 1.24658C13.5915 1.24658 14.6361 1.45604 15.6096 1.86279C16.5831 2.26954 17.4668 2.86511 18.2083 3.61572C18.9495 4.36621 19.5342 5.25664 19.929 6.23486C20.3237 7.2133 20.52 8.26092 20.5071 9.31592V20.9165H23.3069V22.9204H1.76489V20.9165H4.56567V9.31592C4.55273 8.26092 4.74903 7.2133 5.1438 6.23486C5.53857 5.25651 6.12407 4.36628 6.86548 3.61572C7.60683 2.86525 8.48979 2.26951 9.46313 1.86279C10.4366 1.45607 11.4814 1.2466 12.5364 1.24658ZM12.5364 3.34424C11.7523 3.34424 10.9756 3.49929 10.2512 3.79932C9.52681 4.09938 8.86818 4.53883 8.31372 5.09326C7.75924 5.64774 7.31888 6.3063 7.0188 7.03076C6.7188 7.75514 6.5647 8.53188 6.5647 9.31592V20.9165H18.5071V9.31592C18.5071 8.53186 18.353 7.75515 18.053 7.03076C17.7529 6.3063 17.3125 5.64774 16.7581 5.09326C16.2036 4.53886 15.5449 4.09937 14.8206 3.79932C14.0963 3.49937 13.3203 3.34429 12.5364 3.34424ZM13.5354 7.09717V10.2124H16.0579V12.2124H13.5354V17.0962H11.5364V12.2124H9.01392V10.2124H11.5364V7.09717H13.5354Z" fill="#282B3E"/>
</mask>
<g mask="url(#mask0_453_4061)">
<rect x="0.5" width="24" height="24" fill="#282B3E"/>
</g>
</svg>
