<svg width="25" height="24" viewBox="0 0 25 24" fill="none" xmlns="http://www.w3.org/2000/svg">
<mask id="mask0_453_4046" style="mask-type:alpha" maskUnits="userSpaceOnUse" x="1" y="1" width="23" height="22">
<path d="M21.5468 3.81249C20.9945 3.23004 20.3289 2.7667 19.5909 2.45096C18.853 2.13522 18.0582 1.97376 17.2556 1.97649C16.4594 1.97847 15.6719 2.14212 14.9409 2.45751C14.2099 2.7729 13.5505 3.23347 13.0028 3.81129L12.488 4.35609L11.9636 3.81129C11.4358 3.25171 10.8029 2.8016 10.101 2.48668C9.39921 2.17176 8.64222 1.9982 7.8733 1.97591C7.10438 1.95362 6.33861 2.08304 5.61972 2.35679C4.90084 2.63053 4.24293 3.04322 3.68358 3.57129C3.60358 3.65129 3.52358 3.73129 3.44358 3.81129C2.35568 4.95518 1.73341 6.46361 1.69834 8.04183C1.66328 9.62004 2.21796 11.1546 3.25398 12.3457L12.494 22.9153L21.74 12.3601C22.779 11.1676 23.3352 9.63008 23.2994 8.04886C23.2637 6.46764 22.6386 4.95679 21.5468 3.81249ZM12.488 19.8793L6.52518 13.0525L6.50838 13.0333L8.84718 10.6945L12.7676 14.6173L15.14 12.2401H19.1744L19.1552 12.2641L12.488 19.8793ZM20.768 10.2445H14.3108L12.7676 11.7877L8.84718 7.86489L5.18958 11.5201H5.17998L4.76238 11.0401C4.05308 10.2231 3.67372 9.17103 3.69835 8.08935C3.72298 7.00767 4.14983 5.97399 4.89558 5.19009C4.94718 5.13489 5.00118 5.08209 5.05758 5.02929C5.42665 4.68121 5.86076 4.40937 6.33506 4.22933C6.80935 4.04929 7.31451 3.96459 7.82159 3.98008C8.32867 3.99558 8.82771 4.11096 9.29013 4.31962C9.75255 4.52829 10.1693 4.82613 10.5164 5.19609L12.5 7.25409L14.456 5.18529C14.8193 4.80274 15.2567 4.49811 15.7415 4.28994C16.2263 4.08178 16.7484 3.97443 17.276 3.97443C17.8036 3.97443 18.3257 4.08178 18.8105 4.28994C19.2953 4.49811 19.7326 4.80274 20.096 5.18529C20.7274 5.84972 21.1329 6.69665 21.2544 7.60519C21.376 8.51373 21.2074 9.43744 20.7728 10.2445H20.768Z" fill="#282B3E"/>
</mask>
<g mask="url(#mask0_453_4046)">
<rect x="0.5" width="24" height="24" fill="#282B3E"/>
</g>
</svg>
