<svg width="25" height="24" viewBox="0 0 25 24" fill="none" xmlns="http://www.w3.org/2000/svg">
<mask id="mask0_453_4055" style="mask-type:alpha" maskUnits="userSpaceOnUse" x="2" y="1" width="22" height="22">
<path d="M21.5046 16.6173V9.11972H10.3014L10.2762 1.18652H6.10256V3.18692H8.28176L8.30216 9.18692C6.77792 9.40915 5.37331 10.1394 4.31578 11.2593C3.25824 12.3793 2.60968 13.8234 2.47513 15.3579C2.34057 16.8923 2.7279 18.4273 3.57438 19.7142C4.42087 21.0011 5.67695 21.9646 7.13925 22.4488C8.60155 22.9329 10.1844 22.9092 11.6316 22.3817C13.0788 21.8541 14.3056 20.8535 15.1133 19.5419C15.921 18.2303 16.2623 16.6844 16.082 15.1547C15.9016 13.6249 15.2103 12.2008 14.1198 11.1129H19.5042V16.5957C18.7854 16.8256 18.172 17.3039 17.7737 17.9449C17.3755 18.5858 17.2185 19.3477 17.3308 20.0939C17.4431 20.8401 17.8174 21.5219 18.3866 22.0173C18.9559 22.5127 19.6829 22.7892 20.4375 22.7974C21.1921 22.8055 21.9249 22.5447 22.5047 22.0618C23.0846 21.5788 23.4735 20.9052 23.6019 20.1616C23.7303 19.418 23.5897 18.6529 23.2054 18.0035C22.8211 17.3541 22.2182 16.8627 21.5046 16.6173ZM14.1258 15.9477C14.1268 16.901 13.8462 17.8334 13.3192 18.6278C12.7923 19.4223 12.0425 20.0434 11.1638 20.4133C10.2852 20.7831 9.3169 20.8853 8.38044 20.7069C7.44397 20.5285 6.58105 20.0774 5.89996 19.4104C5.21887 18.7434 4.74994 17.8901 4.55202 16.9576C4.35409 16.025 4.43599 15.0548 4.78743 14.1686C5.13887 13.2825 5.7442 12.5198 6.52746 11.9764C7.31073 11.433 8.23704 11.133 9.19016 11.1141H9.38336C10.6487 11.1402 11.8536 11.6606 12.74 12.564C13.6264 13.4675 14.1238 14.6821 14.1258 15.9477ZM20.475 20.7873C20.2431 20.7873 20.0164 20.7186 19.8236 20.5897C19.6308 20.4609 19.4805 20.2778 19.3918 20.0636C19.3031 19.8494 19.2798 19.6136 19.3251 19.3862C19.3703 19.1588 19.482 18.9499 19.6459 18.7859C19.8099 18.6219 20.0188 18.5103 20.2462 18.4651C20.4737 18.4198 20.7094 18.443 20.9236 18.5318C21.1378 18.6205 21.3209 18.7708 21.4498 18.9636C21.5786 19.1564 21.6474 19.383 21.6474 19.6149C21.647 19.9258 21.5234 20.2238 21.3036 20.4436C21.0838 20.6634 20.7858 20.787 20.475 20.7873Z" fill="#282B3E"/>
</mask>
<g mask="url(#mask0_453_4055)">
<rect x="0.833252" width="24" height="24" fill="#282B3E"/>
</g>
</svg>
